<?xml version="1.0" encoding="utf-8"?>
<svg width="480px" height="200px" viewBox="0 0 480 200" version="1.1" xmlns:xlink="http://www.w3.org/1999/xlink" xmlns="http://www.w3.org/2000/svg">
  <defs>
    <path d="M480 0L480 0L480 200L0 200L0 0L480 0Z" id="path_1" />
    <path d="M36 90L68 90L68 122L36 122L36 90Z" id="path_2" />
    <path d="M72 90L104 90L104 122L72 122L72 90Z" id="path_3" />
    <path d="M36 45L68 45L68 77L36 77L36 45Z" id="path_4" />
    <path d="M0 45L32 45L32 77L0 77L0 45Z" id="path_5" />
    <path d="M72 45L104 45L104 77L72 77L72 45Z" id="path_6" />
    <path d="M36 9L68 9L68 41L36 41L36 9Z" id="path_7" />
    <path d="M81 0L113 0L113 32L81 32L81 0Z" id="path_8" />
    <path d="M117 0L149 0L149 32L117 32L117 0Z" id="path_9" />
    <path d="M71.3923 71.4641L71.3923 71.4641Q71.3923 71.2676 71.4115 71.072Q71.4308 70.8765 71.4691 70.6837Q71.5074 70.491 71.5645 70.303Q71.6215 70.1149 71.6967 69.9334Q71.7719 69.7518 71.8646 69.5785Q71.9572 69.4052 72.0664 69.2418Q72.1755 69.0784 72.3002 68.9265Q72.4249 68.7746 72.5638 68.6357Q72.7028 68.4967 72.8547 68.3721Q73.0066 68.2474 73.17 68.1382Q73.3334 68.029 73.5067 67.9364Q73.68 67.8438 73.8615 67.7686Q74.0431 67.6934 74.2311 67.6363Q74.4192 67.5793 74.6119 67.5409Q74.8046 67.5026 75.0002 67.4834Q75.1957 67.4641 75.3923 67.4641L91.3923 67.4641Q91.5888 67.4641 91.7843 67.4834Q91.9799 67.5026 92.1726 67.5409Q92.3653 67.5793 92.5534 67.6363Q92.7414 67.6934 92.923 67.7686Q93.1045 67.8438 93.2778 67.9364Q93.4511 68.029 93.6145 68.1382Q93.7779 68.2474 93.9298 68.3721Q94.0817 68.4967 94.2207 68.6357Q94.3596 68.7746 94.4843 68.9265Q94.609 69.0784 94.7181 69.2418Q94.8273 69.4052 94.9199 69.5785Q95.0126 69.7518 95.0878 69.9334Q95.163 70.1149 95.22 70.303Q95.277 70.491 95.3154 70.6837Q95.3537 70.8765 95.373 71.072Q95.3923 71.2676 95.3923 71.4641L95.3923 71.4641Q95.3923 71.6606 95.373 71.8562Q95.3537 72.0517 95.3154 72.2444Q95.2771 72.4372 95.22 72.6252Q95.163 72.8133 95.0878 72.9948Q95.0126 73.1764 94.9199 73.3497Q94.8273 73.523 94.7181 73.6864Q94.609 73.8498 94.4843 74.0017Q94.3596 74.1536 94.2207 74.2925Q94.0817 74.4315 93.9298 74.5561Q93.7779 74.6808 93.6145 74.79Q93.4511 74.8991 93.2778 74.9918Q93.1045 75.0844 92.923 75.1596Q92.7414 75.2348 92.5534 75.2919Q92.3653 75.3489 92.1726 75.3872Q91.9799 75.4256 91.7843 75.4448Q91.5888 75.4641 91.3923 75.4641L75.3923 75.4641Q75.1957 75.4641 75.0002 75.4448Q74.8046 75.4256 74.6119 75.3872Q74.4192 75.3489 74.2311 75.2919Q74.0431 75.2348 73.8615 75.1596Q73.68 75.0844 73.5067 74.9918Q73.3334 74.8991 73.17 74.79Q73.0066 74.6808 72.8547 74.5561Q72.7028 74.4315 72.5638 74.2925Q72.4249 74.1536 72.3002 74.0017Q72.1755 73.8498 72.0664 73.6864Q71.9572 73.523 71.8646 73.3497Q71.7719 73.1764 71.6967 72.9948Q71.6215 72.8133 71.5645 72.6252Q71.5074 72.4372 71.4691 72.2444Q71.4308 72.0517 71.4115 71.8562Q71.3923 71.6606 71.3923 71.4641Z" transform="rotate(-30 83.39 71.46)" id="path_10" />
    <path d="M100.392 71.4641L100.392 71.4641Q100.392 71.2676 100.412 71.072Q100.431 70.8765 100.469 70.6837Q100.507 70.491 100.565 70.303Q100.622 70.1149 100.697 69.9334Q100.772 69.7518 100.865 69.5785Q100.957 69.4052 101.066 69.2418Q101.176 69.0784 101.3 68.9265Q101.425 68.7746 101.564 68.6357Q101.703 68.4967 101.855 68.3721Q102.007 68.2474 102.17 68.1382Q102.333 68.029 102.507 67.9364Q102.68 67.8438 102.862 67.7686Q103.043 67.6934 103.231 67.6363Q103.419 67.5793 103.612 67.5409Q103.805 67.5026 104 67.4834Q104.196 67.4641 104.392 67.4641L120.392 67.4641Q120.589 67.4641 120.784 67.4834Q120.98 67.5026 121.173 67.5409Q121.365 67.5793 121.553 67.6363Q121.741 67.6934 121.923 67.7686Q122.105 67.8438 122.278 67.9364Q122.451 68.029 122.615 68.1382Q122.778 68.2474 122.93 68.3721Q123.082 68.4967 123.221 68.6357Q123.36 68.7746 123.484 68.9265Q123.609 69.0784 123.718 69.2418Q123.827 69.4052 123.92 69.5785Q124.013 69.7518 124.088 69.9334Q124.163 70.1149 124.22 70.303Q124.277 70.491 124.315 70.6837Q124.354 70.8765 124.373 71.072Q124.392 71.2676 124.392 71.4641L124.392 71.4641Q124.392 71.6606 124.373 71.8562Q124.354 72.0517 124.315 72.2444Q124.277 72.4372 124.22 72.6252Q124.163 72.8133 124.088 72.9948Q124.013 73.1764 123.92 73.3497Q123.827 73.523 123.718 73.6864Q123.609 73.8498 123.484 74.0017Q123.36 74.1536 123.221 74.2925Q123.082 74.4315 122.93 74.5561Q122.778 74.6808 122.615 74.79Q122.451 74.8991 122.278 74.9918Q122.105 75.0844 121.923 75.1596Q121.741 75.2348 121.553 75.2919Q121.365 75.3489 121.173 75.3872Q120.98 75.4256 120.784 75.4448Q120.589 75.4641 120.392 75.4641L104.392 75.4641Q104.196 75.4641 104 75.4448Q103.805 75.4256 103.612 75.3872Q103.419 75.3489 103.231 75.2919Q103.043 75.2348 102.862 75.1596Q102.68 75.0844 102.507 74.9918Q102.333 74.8991 102.17 74.79Q102.007 74.6808 101.855 74.5561Q101.703 74.4315 101.564 74.2925Q101.425 74.1536 101.3 74.0017Q101.176 73.8498 101.066 73.6864Q100.957 73.523 100.865 73.3497Q100.772 73.1764 100.697 72.9948Q100.622 72.8133 100.565 72.6252Q100.507 72.4372 100.469 72.2444Q100.431 72.0517 100.412 71.8562Q100.392 71.6606 100.392 71.4641Z" transform="rotate(-30 112.39 71.46)" id="path_11" />
    <path d="M148 52C148 45.3726 153.373 40 160 40C166.627 40 172 45.3726 172 52C172 58.6274 166.627 64 160 64C153.373 64 148 58.6274 148 52Z" id="path_12" />
    <path d="M168 32C168 25.3726 173.373 20 180 20C186.627 20 192 25.3726 192 32C192 38.6274 186.627 44 180 44C173.373 44 168 38.6274 168 32Z" id="path_13" />
    <path d="M128 32C128 25.3726 133.373 20 140 20C146.627 20 152 25.3726 152 32C152 38.6274 146.627 44 140 44C133.373 44 128 38.6274 128 32Z" id="path_14" />
    <path d="M148 12C148 5.37258 153.373 0 160 0C166.627 0 172 5.37258 172 12C172 18.6274 166.627 24 160 24C153.373 24 148 18.6274 148 12Z" id="path_15" />
    <path d="M92 12C92 7.58173 95.5817 4 100 4C104.418 4 108 7.58173 108 12C108 16.4183 104.418 20 100 20C95.5817 20 92 16.4183 92 12Z" id="path_16" />
    <path d="M0 24C0 10.7452 10.7452 0 24 0C37.2548 0 48 10.7452 48 24C48 37.2548 37.2548 48 24 48C10.7452 48 0 37.2548 0 24Z" id="path_17" />
    <path d="M8 24C8 15.1634 15.1634 8 24 8C32.8366 8 40 15.1634 40 24C40 32.8366 32.8366 40 24 40C15.1634 40 8 32.8366 8 24Z" id="path_18" />
    <path d="M34.0019 4L21.998 4Q21.8016 4 21.6062 4.01926Q21.4107 4.03851 21.2181 4.07683Q21.0254 4.11514 20.8375 4.17216Q20.6495 4.22917 20.468 4.30434Q20.2866 4.3795 20.1134 4.47209Q19.9401 4.56468 19.7768 4.6738Q19.6135 4.78292 19.4617 4.90752Q19.3099 5.03212 19.171 5.171Q19.0321 5.30989 18.9075 5.46172Q18.7829 5.61354 18.6738 5.77685Q18.5647 5.94016 18.4721 6.11338Q18.3795 6.2866 18.3043 6.46806Q18.2292 6.64952 18.1721 6.83748Q18.1151 7.02543 18.0768 7.21807Q18.0385 7.41071 18.0192 7.60617Q18 7.80164 18 7.99805L18 22L3.99805 22Q3.80164 22 3.60617 22.0193Q3.4107 22.0385 3.21807 22.0768Q3.02543 22.1151 2.83748 22.1722Q2.64952 22.2292 2.46806 22.3043Q2.2866 22.3795 2.11338 22.4721Q1.94016 22.5647 1.77685 22.6738Q1.61354 22.7829 1.46171 22.9075Q1.30988 23.0321 1.171 23.171Q1.03212 23.3099 0.907515 23.4617Q0.782913 23.6135 0.673792 23.7769Q0.564672 23.9402 0.472084 24.1134Q0.379497 24.2866 0.304333 24.4681Q0.22917 24.6495 0.172155 24.8375Q0.115139 25.0254 0.0768213 25.2181Q0.0385034 25.4107 0.0192517 25.6062Q0 25.8016 0 25.9981L3.8147e-06 38.0019Q3.8147e-06 38.1984 0.0192555 38.3938Q0.0385072 38.5893 0.0768251 38.7819Q0.115143 38.9746 0.172158 39.1625Q0.229174 39.3505 0.304337 39.5319Q0.3795 39.7134 0.472088 39.8866Q0.564676 40.0598 0.673796 40.2231Q0.782917 40.3865 0.907519 40.5383Q1.03212 40.6901 1.171 40.829Q1.30989 40.9679 1.46172 41.0925Q1.61354 41.2171 1.77685 41.3262Q1.94017 41.4353 2.11338 41.5279Q2.2866 41.6205 2.46806 41.6957Q2.64952 41.7708 2.83748 41.8278Q3.02543 41.8849 3.21807 41.9232Q3.41071 41.9615 3.60617 41.9807Q3.80164 42 3.99805 42L18 42L18 56.002Q18 56.1984 18.0192 56.3938Q18.0385 56.5893 18.0768 56.7819Q18.1151 56.9746 18.1721 57.1625Q18.2292 57.3505 18.3043 57.5319Q18.3795 57.7134 18.4721 57.8866Q18.5647 58.0598 18.6738 58.2231Q18.7829 58.3865 18.9075 58.5383Q19.0321 58.6901 19.171 58.829Q19.3099 58.9679 19.4617 59.0925Q19.6135 59.2171 19.7768 59.3262Q19.9402 59.4353 20.1134 59.5279Q20.2866 59.6205 20.4681 59.6957Q20.6495 59.7708 20.8375 59.8278Q21.0254 59.8849 21.2181 59.9232Q21.4107 59.9615 21.6062 59.9808Q21.8016 60 21.998 60L34.0019 60Q34.1984 60 34.3938 59.9807Q34.5893 59.9615 34.7819 59.9232Q34.9746 59.8849 35.1625 59.8278Q35.3505 59.7708 35.5319 59.6957Q35.7134 59.6205 35.8866 59.5279Q36.0598 59.4353 36.2231 59.3262Q36.3864 59.2171 36.5383 59.0925Q36.6901 58.9679 36.829 58.829Q36.9679 58.6901 37.0925 58.5383Q37.2171 58.3865 37.3262 58.2231Q37.4353 58.0598 37.5279 57.8866Q37.6205 57.7134 37.6957 57.5319Q37.7708 57.3505 37.8278 57.1625Q37.8848 56.9746 37.9232 56.7819Q37.9615 56.5893 37.9807 56.3938Q38 56.1984 38 56.0019L38 42L52.0019 42Q52.1984 42 52.3938 41.9807Q52.5893 41.9615 52.7819 41.9232Q52.9746 41.8849 53.1625 41.8278Q53.3505 41.7708 53.5319 41.6957Q53.7134 41.6205 53.8866 41.5279Q54.0598 41.4353 54.2231 41.3262Q54.3864 41.2171 54.5383 41.0925Q54.6901 40.9679 54.829 40.829Q54.9679 40.6901 55.0925 40.5383Q55.2171 40.3865 55.3262 40.2231Q55.4353 40.0598 55.5279 39.8866Q55.6205 39.7134 55.6956 39.5319Q55.7708 39.3505 55.8278 39.1625Q55.8848 38.9746 55.9232 38.7819Q55.9615 38.5893 55.9807 38.3938Q56 38.1984 56 38.0019L56 25.9981Q56 25.8016 55.9807 25.6062Q55.9615 25.4107 55.9232 25.2181Q55.8848 25.0254 55.8278 24.8375Q55.7708 24.6495 55.6956 24.4681Q55.6205 24.2866 55.5279 24.1134Q55.4353 23.9402 55.3262 23.7769Q55.2171 23.6135 55.0925 23.4617Q54.9679 23.3099 54.829 23.171Q54.6901 23.0321 54.5383 22.9075Q54.3864 22.7829 54.2231 22.6738Q54.0598 22.5647 53.8866 22.4721Q53.7134 22.3795 53.5319 22.3043Q53.3505 22.2292 53.1625 22.1722Q52.9746 22.1151 52.7819 22.0768Q52.5893 22.0385 52.3938 22.0193Q52.1984 22 52.0019 22L38 22L38 7.99805Q38 7.80164 37.9807 7.60617Q37.9615 7.41071 37.9232 7.21807Q37.8848 7.02543 37.8278 6.83748Q37.7708 6.64952 37.6957 6.46806Q37.6205 6.2866 37.5279 6.11338Q37.4353 5.94017 37.3262 5.77685Q37.2171 5.61354 37.0925 5.46172Q36.9679 5.30989 36.829 5.171Q36.6901 5.03212 36.5383 4.90752Q36.3864 4.78292 36.2231 4.6738Q36.0598 4.56468 35.8866 4.47209Q35.7134 4.3795 35.5319 4.30434Q35.3505 4.22917 35.1625 4.17216Q34.9746 4.11514 34.7819 4.07683Q34.5893 4.03851 34.3938 4.01926Q34.1984 4 34.0019 4Z" id="path_19" />
    <clipPath id="clip_1">
      <use xlink:href="#path_1" clip-rule="evenodd" fill-rule="evenodd" />
    </clipPath>
    <clipPath id="clip_2">
      <use xlink:href="#path_2" />
    </clipPath>
    <clipPath id="clip_3">
      <use xlink:href="#path_3" />
    </clipPath>
    <clipPath id="clip_4">
      <use xlink:href="#path_4" />
    </clipPath>
    <clipPath id="clip_5">
      <use xlink:href="#path_5" />
    </clipPath>
    <clipPath id="clip_6">
      <use xlink:href="#path_6" />
    </clipPath>
    <clipPath id="clip_7">
      <use xlink:href="#path_7" />
    </clipPath>
    <clipPath id="clip_8">
      <use xlink:href="#path_8" />
    </clipPath>
    <clipPath id="clip_9">
      <use xlink:href="#path_9" />
    </clipPath>
    <clipPath id="clip_10">
      <use xlink:href="#path_10" />
    </clipPath>
    <clipPath id="clip_11">
      <use xlink:href="#path_11" />
    </clipPath>
    <clipPath id="clip_12">
      <use xlink:href="#path_12" />
    </clipPath>
    <clipPath id="clip_13">
      <use xlink:href="#path_13" />
    </clipPath>
    <clipPath id="clip_14">
      <use xlink:href="#path_14" />
    </clipPath>
    <clipPath id="clip_15">
      <use xlink:href="#path_15" />
    </clipPath>
    <clipPath id="clip_16">
      <use xlink:href="#path_16" />
    </clipPath>
    <clipPath id="clip_17">
      <use xlink:href="#path_17" />
    </clipPath>
    <clipPath id="clip_18">
      <use xlink:href="#path_18" />
    </clipPath>
    <clipPath id="clip_19">
      <use xlink:href="#path_19" />
    </clipPath>
  </defs>
  <g id="m8tracker-headless-keymap">
    <path d="M480 0L480 0L480 200L0 200L0 0L480 0Z" id="m8tracker-headless-keymap" fill="#FFFFFF" stroke="none" />
    <g id="Group" transform="translate(32 18)" clip-path="url(#clip_1)">
      <g id="M8Tracker" transform="translate(0 7)">
        <g id="shift">
          <use stroke="none" fill="#DFB694" xlink:href="#path_2" fill-rule="evenodd" />
          <g clip-path="url(#clip_2)">
            <use xlink:href="#path_2" fill="none" stroke="#000000" stroke-width="1" />
          </g>
        </g>
        <g id="SHIFT" transform="translate(40 114)">
          <g transform="translate(0, 2.196)" id="SHIFT" fill-opacity="0.6">
            <path d="M2.586 2.454Q2.304 2.04 1.764 2.04Q1.596 2.04 1.434 2.085Q1.272 2.13 1.143 2.223Q1.014 2.316 0.936 2.463Q0.858 2.61 0.858 2.808Q0.858 3.096 1.02 3.255Q1.182 3.414 1.422 3.516Q1.662 3.618 1.947 3.699Q2.232 3.78 2.472 3.915Q2.712 4.05 2.874 4.272Q3.036 4.494 3.036 4.878Q3.036 5.166 2.913 5.397Q2.79 5.628 2.589 5.784Q2.388 5.94 2.139 6.024Q1.89 6.108 1.638 6.108Q1.248 6.108 0.897 5.961Q0.546 5.814 0.3 5.478L0.69 5.196Q0.828 5.43 1.074 5.571Q1.32 5.712 1.656 5.712Q1.818 5.712 1.98 5.661Q2.142 5.61 2.271 5.511Q2.4 5.412 2.484 5.268Q2.568 5.124 2.568 4.938Q2.568 4.716 2.475 4.569Q2.382 4.422 2.229 4.323Q2.076 4.224 1.881 4.158Q1.686 4.092 1.479 4.026Q1.272 3.96 1.077 3.876Q0.882 3.792 0.729 3.663Q0.576 3.534 0.483 3.339Q0.39 3.144 0.39 2.85Q0.39 2.544 0.507 2.316Q0.624 2.088 0.819 1.938Q1.014 1.788 1.26 1.716Q1.506 1.644 1.764 1.644Q2.124 1.644 2.418 1.758Q2.712 1.872 2.964 2.16L2.586 2.454ZM3.912 1.752L4.344 1.752L4.344 3.594L6.66 3.594L6.66 1.752L7.092 1.752L7.092 6L6.66 6L6.66 3.99L4.344 3.99L4.344 6L3.912 6L3.912 1.752ZM8.676 6L8.244 6L8.244 1.752L8.676 1.752L8.676 6ZM10.26 6L9.828 6L9.828 1.752L12.39 1.752L12.39 2.148L10.26 2.148L10.26 3.594L12.24 3.594L12.24 3.99L10.26 3.99L10.26 6ZM14.526 6L14.094 6L14.094 2.148L12.672 2.148L12.672 1.752L15.948 1.752L15.948 2.148L14.526 2.148L14.526 6Z" />
          </g>
        </g>
        <g id="play">
          <use stroke="none" fill="#ACC19D" xlink:href="#path_3" fill-rule="evenodd" />
          <g clip-path="url(#clip_3)">
            <use xlink:href="#path_3" fill="none" stroke="#000000" stroke-width="1" />
          </g>
        </g>
        <g id="PLAY" transform="translate(76 114)">
          <g transform="translate(0, 2.196)" id="PLAY" fill-opacity="0.6">
            <path d="M1.008 3.63L1.704 3.63Q1.992 3.63 2.193 3.57Q2.394 3.51 2.514 3.411Q2.634 3.312 2.688 3.177Q2.742 3.042 2.742 2.886Q2.742 2.736 2.688 2.601Q2.634 2.466 2.514 2.364Q2.394 2.262 2.193 2.205Q1.992 2.148 1.704 2.148L1.008 2.148L1.008 3.63ZM0.576 1.752L1.812 1.752Q2.46 1.752 2.835 2.034Q3.21 2.316 3.21 2.886Q3.21 3.456 2.835 3.741Q2.46 4.026 1.812 4.026L1.008 4.026L1.008 6L0.576 6L0.576 1.752ZM4.452 5.604L6.432 5.604L6.432 6L4.02 6L4.02 1.752L4.452 1.752L4.452 5.604ZM7.578 4.488L9.42 4.488L8.502 2.256L7.578 4.488ZM6.948 6L6.444 6L8.292 1.752L8.712 1.752L10.56 6L10.056 6L9.588 4.884L7.416 4.884L6.948 6ZM12.054 6L11.622 6L11.622 4.17L10.032 1.752L10.572 1.752L11.838 3.756L13.104 1.752L13.644 1.752L12.054 4.17L12.054 6Z" />
          </g>
        </g>
        <g id="down">
          <use stroke="none" fill="#80CAD9" xlink:href="#path_4" fill-rule="evenodd" />
          <g clip-path="url(#clip_4)">
            <use xlink:href="#path_4" fill="none" stroke="#000000" stroke-width="1" />
          </g>
        </g>
        <g id="DOWN" transform="translate(40 69)">
          <g transform="translate(0, 2.196)" id="DOWN" fill-opacity="0.6">
            <path d="M0.948 5.604L1.788 5.604Q2.274 5.604 2.631 5.457Q2.988 5.31 3.225 5.067Q3.462 4.824 3.576 4.515Q3.69 4.206 3.69 3.876Q3.69 3.546 3.576 3.237Q3.462 2.928 3.225 2.685Q2.988 2.442 2.631 2.295Q2.274 2.148 1.788 2.148L0.948 2.148L0.948 5.604ZM0.516 1.752L1.926 1.752Q2.322 1.752 2.721 1.884Q3.12 2.016 3.441 2.283Q3.762 2.55 3.96 2.949Q4.158 3.348 4.158 3.876Q4.158 4.41 3.96 4.806Q3.762 5.202 3.441 5.469Q3.12 5.736 2.721 5.868Q2.322 6 1.926 6L0.516 6L0.516 1.752ZM8.694 3.876Q8.694 3.51 8.574 3.177Q8.454 2.844 8.229 2.592Q8.004 2.34 7.68 2.19Q7.356 2.04 6.948 2.04Q6.54 2.04 6.216 2.19Q5.892 2.34 5.667 2.592Q5.442 2.844 5.322 3.177Q5.202 3.51 5.202 3.876Q5.202 4.242 5.322 4.575Q5.442 4.908 5.667 5.16Q5.892 5.412 6.216 5.562Q6.54 5.712 6.948 5.712Q7.356 5.712 7.68 5.562Q8.004 5.412 8.229 5.16Q8.454 4.908 8.574 4.575Q8.694 4.242 8.694 3.876ZM9.162 3.876Q9.162 4.362 8.994 4.77Q8.826 5.178 8.529 5.475Q8.232 5.772 7.827 5.94Q7.422 6.108 6.948 6.108Q6.474 6.108 6.069 5.94Q5.664 5.772 5.367 5.475Q5.07 5.178 4.902 4.77Q4.734 4.362 4.734 3.876Q4.734 3.39 4.902 2.982Q5.07 2.574 5.367 2.277Q5.664 1.98 6.069 1.812Q6.474 1.644 6.948 1.644Q7.422 1.644 7.827 1.812Q8.232 1.98 8.529 2.277Q8.826 2.574 8.994 2.982Q9.162 3.39 9.162 3.876ZM10.95 5.388L10.962 5.388L12.03 1.752L12.546 1.752L13.614 5.388L13.626 5.388L14.634 1.752L15.114 1.752L13.86 6L13.356 6L12.288 2.364L12.276 2.364L11.208 6L10.704 6L9.45 1.752L9.93 1.752L10.95 5.388ZM18.762 5.352L18.774 5.352L18.774 1.752L19.206 1.752L19.206 6L18.666 6L16.134 2.364L16.122 2.364L16.122 6L15.69 6L15.69 1.752L16.23 1.752L18.762 5.352Z" />
          </g>
        </g>
        <g id="left">
          <use stroke="none" fill="#80CAD9" xlink:href="#path_5" fill-rule="evenodd" />
          <g clip-path="url(#clip_5)">
            <use xlink:href="#path_5" fill="none" stroke="#000000" stroke-width="1" />
          </g>
        </g>
        <g id="LEFT" transform="translate(4 69)">
          <g transform="translate(0, 2.196)" id="LEFT" fill-opacity="0.6">
            <path d="M1.008 5.604L2.988 5.604L2.988 6L0.576 6L0.576 1.752L1.008 1.752L1.008 5.604ZM4.008 5.604L6.282 5.604L6.282 6L3.576 6L3.576 1.752L6.21 1.752L6.21 2.148L4.008 2.148L4.008 3.594L6.066 3.594L6.066 3.99L4.008 3.99L4.008 5.604ZM7.566 6L7.134 6L7.134 1.752L9.696 1.752L9.696 2.148L7.566 2.148L7.566 3.594L9.546 3.594L9.546 3.99L7.566 3.99L7.566 6ZM11.832 6L11.4 6L11.4 2.148L9.978 2.148L9.978 1.752L13.254 1.752L13.254 2.148L11.832 2.148L11.832 6Z" />
          </g>
        </g>
        <g id="right">
          <use stroke="none" fill="#80CAD9" xlink:href="#path_6" fill-rule="evenodd" />
          <g clip-path="url(#clip_6)">
            <use xlink:href="#path_6" fill="none" stroke="#000000" stroke-width="1" />
          </g>
        </g>
        <g id="RIGHT" transform="translate(76 69)">
          <g transform="translate(0, 2.196)" id="RIGHT" fill-opacity="0.6">
            <path d="M1.008 3.63L1.776 3.63Q2.064 3.63 2.265 3.57Q2.466 3.51 2.586 3.411Q2.706 3.312 2.76 3.177Q2.814 3.042 2.814 2.886Q2.814 2.736 2.76 2.601Q2.706 2.466 2.586 2.364Q2.466 2.262 2.265 2.205Q2.064 2.148 1.776 2.148L1.008 2.148L1.008 3.63ZM1.008 6L0.576 6L0.576 1.752L1.884 1.752Q2.532 1.752 2.907 2.034Q3.282 2.316 3.282 2.886Q3.282 3.33 3.003 3.633Q2.724 3.936 2.196 3.984L3.42 6L2.892 6L1.728 4.026L1.008 4.026L1.008 6ZM4.566 6L4.134 6L4.134 1.752L4.566 1.752L4.566 6ZM8.856 2.532Q8.64 2.304 8.34 2.172Q8.04 2.04 7.644 2.04Q7.236 2.04 6.912 2.19Q6.588 2.34 6.363 2.592Q6.138 2.844 6.018 3.177Q5.898 3.51 5.898 3.876Q5.898 4.242 6.018 4.575Q6.138 4.908 6.363 5.16Q6.588 5.412 6.912 5.562Q7.236 5.712 7.644 5.712Q7.974 5.712 8.277 5.631Q8.58 5.55 8.82 5.412L8.82 3.99L7.806 3.99L7.806 3.594L9.252 3.594L9.252 5.676Q8.892 5.886 8.463 5.997Q8.034 6.108 7.644 6.108Q7.17 6.108 6.765 5.94Q6.36 5.772 6.063 5.475Q5.766 5.178 5.598 4.77Q5.43 4.362 5.43 3.876Q5.43 3.39 5.598 2.982Q5.766 2.574 6.063 2.277Q6.36 1.98 6.765 1.812Q7.17 1.644 7.644 1.644Q8.154 1.644 8.523 1.785Q8.892 1.926 9.18 2.214L8.856 2.532ZM10.386 1.752L10.818 1.752L10.818 3.594L13.134 3.594L13.134 1.752L13.566 1.752L13.566 6L13.134 6L13.134 3.99L10.818 3.99L10.818 6L10.386 6L10.386 1.752ZM16.08 6L15.648 6L15.648 2.148L14.226 2.148L14.226 1.752L17.502 1.752L17.502 2.148L16.08 2.148L16.08 6Z" />
          </g>
        </g>
        <g id="up">
          <use stroke="none" fill="#80CAD9" xlink:href="#path_7" fill-rule="evenodd" />
          <g clip-path="url(#clip_7)">
            <use xlink:href="#path_7" fill="none" stroke="#000000" stroke-width="1" />
          </g>
        </g>
        <g id="UP" transform="translate(40 33)">
          <g transform="translate(0, 2.196)" id="UP" fill-opacity="0.6">
            <path d="M3.612 4.416Q3.612 4.68 3.549 4.977Q3.486 5.274 3.312 5.526Q3.138 5.778 2.835 5.943Q2.532 6.108 2.058 6.108Q1.578 6.108 1.278 5.943Q0.978 5.778 0.804 5.526Q0.63 5.274 0.567 4.977Q0.504 4.68 0.504 4.416L0.504 1.752L0.936 1.752L0.936 4.368Q0.936 4.674 0.996 4.893Q1.056 5.112 1.155 5.262Q1.254 5.412 1.377 5.499Q1.5 5.586 1.623 5.634Q1.746 5.682 1.86 5.697Q1.974 5.712 2.058 5.712Q2.136 5.712 2.253 5.697Q2.37 5.682 2.493 5.634Q2.616 5.586 2.739 5.499Q2.862 5.412 2.961 5.262Q3.06 5.112 3.12 4.893Q3.18 4.674 3.18 4.368L3.18 1.752L3.612 1.752L3.612 4.416ZM5.124 3.63L5.82 3.63Q6.108 3.63 6.309 3.57Q6.51 3.51 6.63 3.411Q6.75 3.312 6.804 3.177Q6.858 3.042 6.858 2.886Q6.858 2.736 6.804 2.601Q6.75 2.466 6.63 2.364Q6.51 2.262 6.309 2.205Q6.108 2.148 5.82 2.148L5.124 2.148L5.124 3.63ZM4.692 1.752L5.928 1.752Q6.576 1.752 6.951 2.034Q7.326 2.316 7.326 2.886Q7.326 3.456 6.951 3.741Q6.576 4.026 5.928 4.026L5.124 4.026L5.124 6L4.692 6L4.692 1.752Z" />
          </g>
        </g>
        <g id="option">
          <use stroke="none" fill="#C6C3EA" xlink:href="#path_8" fill-rule="evenodd" />
          <g clip-path="url(#clip_8)">
            <use xlink:href="#path_8" fill="none" stroke="#000000" stroke-width="1" />
          </g>
        </g>
        <g id="OPTION" transform="translate(85 24)">
          <g transform="translate(0, 2.196)" id="OPTION" fill-opacity="0.6">
            <path d="M4.248 3.876Q4.248 3.51 4.128 3.177Q4.008 2.844 3.783 2.592Q3.558 2.34 3.234 2.19Q2.91 2.04 2.502 2.04Q2.094 2.04 1.77 2.19Q1.446 2.34 1.221 2.592Q0.996 2.844 0.876 3.177Q0.756 3.51 0.756 3.876Q0.756 4.242 0.876 4.575Q0.996 4.908 1.221 5.16Q1.446 5.412 1.77 5.562Q2.094 5.712 2.502 5.712Q2.91 5.712 3.234 5.562Q3.558 5.412 3.783 5.16Q4.008 4.908 4.128 4.575Q4.248 4.242 4.248 3.876ZM4.716 3.876Q4.716 4.362 4.548 4.77Q4.38 5.178 4.083 5.475Q3.786 5.772 3.381 5.94Q2.976 6.108 2.502 6.108Q2.028 6.108 1.623 5.94Q1.218 5.772 0.921 5.475Q0.624 5.178 0.456 4.77Q0.288 4.362 0.288 3.876Q0.288 3.39 0.456 2.982Q0.624 2.574 0.921 2.277Q1.218 1.98 1.623 1.812Q2.028 1.644 2.502 1.644Q2.976 1.644 3.381 1.812Q3.786 1.98 4.083 2.277Q4.38 2.574 4.548 2.982Q4.716 3.39 4.716 3.876ZM6.012 3.63L6.708 3.63Q6.996 3.63 7.197 3.57Q7.398 3.51 7.518 3.411Q7.638 3.312 7.692 3.177Q7.746 3.042 7.746 2.886Q7.746 2.736 7.692 2.601Q7.638 2.466 7.518 2.364Q7.398 2.262 7.197 2.205Q6.996 2.148 6.708 2.148L6.012 2.148L6.012 3.63ZM5.58 1.752L6.816 1.752Q7.464 1.752 7.839 2.034Q8.214 2.316 8.214 2.886Q8.214 3.456 7.839 3.741Q7.464 4.026 6.816 4.026L6.012 4.026L6.012 6L5.58 6L5.58 1.752ZM10.386 6L9.954 6L9.954 2.148L8.532 2.148L8.532 1.752L11.808 1.752L11.808 2.148L10.386 2.148L10.386 6ZM12.9 6L12.468 6L12.468 1.752L12.9 1.752L12.9 6ZM17.724 3.876Q17.724 3.51 17.604 3.177Q17.484 2.844 17.259 2.592Q17.034 2.34 16.71 2.19Q16.386 2.04 15.978 2.04Q15.57 2.04 15.246 2.19Q14.922 2.34 14.697 2.592Q14.472 2.844 14.352 3.177Q14.232 3.51 14.232 3.876Q14.232 4.242 14.352 4.575Q14.472 4.908 14.697 5.16Q14.922 5.412 15.246 5.562Q15.57 5.712 15.978 5.712Q16.386 5.712 16.71 5.562Q17.034 5.412 17.259 5.16Q17.484 4.908 17.604 4.575Q17.724 4.242 17.724 3.876ZM18.192 3.876Q18.192 4.362 18.024 4.77Q17.856 5.178 17.559 5.475Q17.262 5.772 16.857 5.94Q16.452 6.108 15.978 6.108Q15.504 6.108 15.099 5.94Q14.694 5.772 14.397 5.475Q14.1 5.178 13.932 4.77Q13.764 4.362 13.764 3.876Q13.764 3.39 13.932 2.982Q14.1 2.574 14.397 2.277Q14.694 1.98 15.099 1.812Q15.504 1.644 15.978 1.644Q16.452 1.644 16.857 1.812Q17.262 1.98 17.559 2.277Q17.856 2.574 18.024 2.982Q18.192 3.39 18.192 3.876ZM22.128 5.352L22.14 5.352L22.14 1.752L22.572 1.752L22.572 6L22.032 6L19.5 2.364L19.488 2.364L19.488 6L19.056 6L19.056 1.752L19.596 1.752L22.128 5.352Z" />
          </g>
        </g>
        <g id="edit">
          <use stroke="none" fill="#EDA0BE" xlink:href="#path_9" fill-rule="evenodd" />
          <g clip-path="url(#clip_9)">
            <use xlink:href="#path_9" fill="none" stroke="#000000" stroke-width="1" />
          </g>
        </g>
        <g id="EDIT" transform="translate(121 24)">
          <g transform="translate(0, 2.196)" id="EDIT" fill-opacity="0.6">
            <path d="M1.008 5.604L3.282 5.604L3.282 6L0.576 6L0.576 1.752L3.21 1.752L3.21 2.148L1.008 2.148L1.008 3.594L3.066 3.594L3.066 3.99L1.008 3.99L1.008 5.604ZM4.506 5.604L5.346 5.604Q5.832 5.604 6.189 5.457Q6.546 5.31 6.783 5.067Q7.02 4.824 7.134 4.515Q7.248 4.206 7.248 3.876Q7.248 3.546 7.134 3.237Q7.02 2.928 6.783 2.685Q6.546 2.442 6.189 2.295Q5.832 2.148 5.346 2.148L4.506 2.148L4.506 5.604ZM4.074 1.752L5.484 1.752Q5.88 1.752 6.279 1.884Q6.678 2.016 6.999 2.283Q7.32 2.55 7.518 2.949Q7.716 3.348 7.716 3.876Q7.716 4.41 7.518 4.806Q7.32 5.202 6.999 5.469Q6.678 5.736 6.279 5.868Q5.88 6 5.484 6L4.074 6L4.074 1.752ZM9.012 6L8.58 6L8.58 1.752L9.012 1.752L9.012 6ZM11.526 6L11.094 6L11.094 2.148L9.672 2.148L9.672 1.752L12.948 1.752L12.948 2.148L11.526 2.148L11.526 6Z" />
          </g>
        </g>
      </g>
      <g id="RG351V" transform="translate(224 0)">
        <g id="select">
          <use stroke="none" fill="#DFB694" xlink:href="#path_10" />
          <g clip-path="url(#clip_10)">
            <use xlink:href="#path_10" fill="none" stroke="#000000" stroke-width="1" />
          </g>
        </g>
        <g id="SELECT" transform="translate(72.49998 80)">
          <g transform="translate(0, 2.196)" id="SELECT" fill-opacity="0.6">
            <path d="M2.586 2.454Q2.304 2.04 1.764 2.04Q1.596 2.04 1.434 2.085Q1.272 2.13 1.143 2.223Q1.014 2.316 0.936 2.463Q0.858 2.61 0.858 2.808Q0.858 3.096 1.02 3.255Q1.182 3.414 1.422 3.516Q1.662 3.618 1.947 3.699Q2.232 3.78 2.472 3.915Q2.712 4.05 2.874 4.272Q3.036 4.494 3.036 4.878Q3.036 5.166 2.913 5.397Q2.79 5.628 2.589 5.784Q2.388 5.94 2.139 6.024Q1.89 6.108 1.638 6.108Q1.248 6.108 0.897 5.961Q0.546 5.814 0.3 5.478L0.69 5.196Q0.828 5.43 1.074 5.571Q1.32 5.712 1.656 5.712Q1.818 5.712 1.98 5.661Q2.142 5.61 2.271 5.511Q2.4 5.412 2.484 5.268Q2.568 5.124 2.568 4.938Q2.568 4.716 2.475 4.569Q2.382 4.422 2.229 4.323Q2.076 4.224 1.881 4.158Q1.686 4.092 1.479 4.026Q1.272 3.96 1.077 3.876Q0.882 3.792 0.729 3.663Q0.576 3.534 0.483 3.339Q0.39 3.144 0.39 2.85Q0.39 2.544 0.507 2.316Q0.624 2.088 0.819 1.938Q1.014 1.788 1.26 1.716Q1.506 1.644 1.764 1.644Q2.124 1.644 2.418 1.758Q2.712 1.872 2.964 2.16L2.586 2.454ZM4.344 5.604L6.618 5.604L6.618 6L3.912 6L3.912 1.752L6.546 1.752L6.546 2.148L4.344 2.148L4.344 3.594L6.402 3.594L6.402 3.99L4.344 3.99L4.344 5.604ZM7.902 5.604L9.882 5.604L9.882 6L7.47 6L7.47 1.752L7.902 1.752L7.902 5.604ZM10.902 5.604L13.176 5.604L13.176 6L10.47 6L10.47 1.752L13.104 1.752L13.104 2.148L10.902 2.148L10.902 3.594L12.96 3.594L12.96 3.99L10.902 3.99L10.902 5.604ZM17.526 5.328Q17.418 5.49 17.259 5.634Q17.1 5.778 16.896 5.883Q16.692 5.988 16.455 6.048Q16.218 6.108 15.954 6.108Q15.48 6.108 15.075 5.94Q14.67 5.772 14.373 5.475Q14.076 5.178 13.908 4.77Q13.74 4.362 13.74 3.876Q13.74 3.39 13.908 2.982Q14.076 2.574 14.373 2.277Q14.67 1.98 15.075 1.812Q15.48 1.644 15.954 1.644Q16.35 1.644 16.746 1.8Q17.142 1.956 17.424 2.316L17.046 2.598Q16.98 2.496 16.866 2.394Q16.752 2.292 16.605 2.214Q16.458 2.136 16.29 2.088Q16.122 2.04 15.954 2.04Q15.546 2.04 15.222 2.19Q14.898 2.34 14.673 2.592Q14.448 2.844 14.328 3.177Q14.208 3.51 14.208 3.876Q14.208 4.242 14.328 4.575Q14.448 4.908 14.673 5.16Q14.898 5.412 15.222 5.562Q15.546 5.712 15.954 5.712Q16.122 5.712 16.287 5.682Q16.452 5.652 16.611 5.58Q16.77 5.508 16.911 5.385Q17.052 5.262 17.172 5.076L17.526 5.328ZM19.614 6L19.182 6L19.182 2.148L17.76 2.148L17.76 1.752L21.036 1.752L21.036 2.148L19.614 2.148L19.614 6Z" />
          </g>
        </g>
        <g id="START" transform="translate(102.99998 81)">
          <g transform="translate(0, 2.196)" id="START" fill-opacity="0.6">
            <path d="M2.586 2.454Q2.304 2.04 1.764 2.04Q1.596 2.04 1.434 2.085Q1.272 2.13 1.143 2.223Q1.014 2.316 0.936 2.463Q0.858 2.61 0.858 2.808Q0.858 3.096 1.02 3.255Q1.182 3.414 1.422 3.516Q1.662 3.618 1.947 3.699Q2.232 3.78 2.472 3.915Q2.712 4.05 2.874 4.272Q3.036 4.494 3.036 4.878Q3.036 5.166 2.913 5.397Q2.79 5.628 2.589 5.784Q2.388 5.94 2.139 6.024Q1.89 6.108 1.638 6.108Q1.248 6.108 0.897 5.961Q0.546 5.814 0.3 5.478L0.69 5.196Q0.828 5.43 1.074 5.571Q1.32 5.712 1.656 5.712Q1.818 5.712 1.98 5.661Q2.142 5.61 2.271 5.511Q2.4 5.412 2.484 5.268Q2.568 5.124 2.568 4.938Q2.568 4.716 2.475 4.569Q2.382 4.422 2.229 4.323Q2.076 4.224 1.881 4.158Q1.686 4.092 1.479 4.026Q1.272 3.96 1.077 3.876Q0.882 3.792 0.729 3.663Q0.576 3.534 0.483 3.339Q0.39 3.144 0.39 2.85Q0.39 2.544 0.507 2.316Q0.624 2.088 0.819 1.938Q1.014 1.788 1.26 1.716Q1.506 1.644 1.764 1.644Q2.124 1.644 2.418 1.758Q2.712 1.872 2.964 2.16L2.586 2.454ZM5.274 6L4.842 6L4.842 2.148L3.42 2.148L3.42 1.752L6.696 1.752L6.696 2.148L5.274 2.148L5.274 6ZM7.506 4.488L9.348 4.488L8.43 2.256L7.506 4.488ZM6.876 6L6.372 6L8.22 1.752L8.64 1.752L10.488 6L9.984 6L9.516 4.884L7.344 4.884L6.876 6ZM11.496 3.63L12.264 3.63Q12.552 3.63 12.753 3.57Q12.954 3.51 13.074 3.411Q13.194 3.312 13.248 3.177Q13.302 3.042 13.302 2.886Q13.302 2.736 13.248 2.601Q13.194 2.466 13.074 2.364Q12.954 2.262 12.753 2.205Q12.552 2.148 12.264 2.148L11.496 2.148L11.496 3.63ZM11.496 6L11.064 6L11.064 1.752L12.372 1.752Q13.02 1.752 13.395 2.034Q13.77 2.316 13.77 2.886Q13.77 3.33 13.491 3.633Q13.212 3.936 12.684 3.984L13.908 6L13.38 6L12.216 4.026L11.496 4.026L11.496 6ZM16.02 6L15.588 6L15.588 2.148L14.166 2.148L14.166 1.752L17.442 1.752L17.442 2.148L16.02 2.148L16.02 6Z" />
          </g>
        </g>
        <g id="start">
          <use stroke="none" fill="#ACC19D" xlink:href="#path_11" />
          <g clip-path="url(#clip_11)">
            <use xlink:href="#path_11" fill="none" stroke="#000000" stroke-width="1" />
          </g>
        </g>
        <g id="B">
          <use stroke="none" fill="#C6C3EA" xlink:href="#path_12" fill-rule="evenodd" />
          <g clip-path="url(#clip_12)">
            <use xlink:href="#path_12" fill="none" stroke="#000000" stroke-width="1" />
          </g>
        </g>
        <g id="B" transform="translate(158.49997 48)">
          <g transform="translate(0, 2.196)" id="B" fill-opacity="0.6">
            <path d="M1.008 5.604L1.836 5.604Q2.07 5.604 2.274 5.556Q2.478 5.508 2.628 5.409Q2.778 5.31 2.865 5.16Q2.952 5.01 2.952 4.8Q2.952 4.38 2.682 4.176Q2.412 3.972 1.89 3.972L1.008 3.972L1.008 5.604ZM1.008 3.612L1.878 3.612Q2.034 3.612 2.187 3.573Q2.34 3.534 2.463 3.444Q2.586 3.354 2.664 3.213Q2.742 3.072 2.742 2.868Q2.742 2.802 2.715 2.682Q2.688 2.562 2.595 2.442Q2.502 2.322 2.322 2.235Q2.142 2.148 1.836 2.148L1.008 2.148L1.008 3.612ZM0.576 1.752L1.842 1.752Q2.106 1.752 2.352 1.806Q2.598 1.86 2.79 1.986Q2.982 2.112 3.096 2.316Q3.21 2.52 3.21 2.82Q3.21 3.168 3.015 3.417Q2.82 3.666 2.46 3.75L2.46 3.762Q2.91 3.798 3.165 4.077Q3.42 4.356 3.42 4.824Q3.42 4.926 3.369 5.124Q3.318 5.322 3.156 5.517Q2.994 5.712 2.688 5.856Q2.382 6 1.872 6L0.576 6L0.576 1.752Z" />
          </g>
        </g>
        <g id="A">
          <use stroke="none" fill="#EDA0BE" xlink:href="#path_13" fill-rule="evenodd" />
          <g clip-path="url(#clip_13)">
            <use xlink:href="#path_13" fill="none" stroke="#000000" stroke-width="1" />
          </g>
        </g>
        <g id="A" transform="translate(177.99997 28)">
          <g transform="translate(0, 2.196)" id="A" fill-opacity="0.6">
            <path d="M1.134 4.488L2.976 4.488L2.058 2.256L1.134 4.488ZM0.504 6L0 6L1.848 1.752L2.268 1.752L4.116 6L3.612 6L3.144 4.884L0.972 4.884L0.504 6Z" />
          </g>
        </g>
        <g id="Y">
          <g clip-path="url(#clip_14)">
            <use xlink:href="#path_14" fill="none" stroke="#000000" stroke-width="1" />
          </g>
        </g>
        <g id="Y" transform="translate(137.99997 28)">
          <g transform="translate(0, 2.196)" id="Y" fill-opacity="0.6">
            <path d="M1.938 6L1.506 6L1.506 4.17L-0.084 1.752L0.456 1.752L1.722 3.756L2.988 1.752L3.528 1.752L1.938 4.17L1.938 6Z" />
          </g>
        </g>
        <g id="X">
          <g clip-path="url(#clip_15)">
            <use xlink:href="#path_15" fill="none" stroke="#000000" stroke-width="1" />
          </g>
        </g>
        <g id="X" transform="translate(157.99997 8)">
          <g transform="translate(0, 2.196)" id="X" fill-opacity="0.6">
            <path d="M1.896 3.45L3.084 1.752L3.624 1.752L2.184 3.768L3.744 6L3.174 6L1.878 4.074L0.576 6L0.036 6L1.59 3.768L0.156 1.752L0.738 1.752L1.896 3.45Z" />
          </g>
        </g>
        <g id="F">
          <use stroke="none" fill="#D3D3D3" xlink:href="#path_16" fill-rule="evenodd" />
          <g clip-path="url(#clip_16)">
            <use xlink:href="#path_16" fill="none" stroke="#000000" stroke-width="1" />
          </g>
        </g>
        <g id="F" transform="translate(97.99998 8)">
          <g transform="translate(0, 2.196)" id="F" fill-opacity="0.6">
            <path d="M1.008 6L0.576 6L0.576 1.752L3.138 1.752L3.138 2.148L1.008 2.148L1.008 3.594L2.988 3.594L2.988 3.99L1.008 3.99L1.008 6Z" />
          </g>
        </g>
        <g id="stick" transform="translate(3.9999893 88)">
          <g id="F">
            <g clip-path="url(#clip_17)">
              <use xlink:href="#path_17" fill="none" stroke="#000000" stroke-width="1" />
            </g>
          </g>
          <g id="F">
            <use stroke="none" fill="#D3D3D3" xlink:href="#path_18" fill-rule="evenodd" />
            <g clip-path="url(#clip_18)">
              <use xlink:href="#path_18" fill="none" stroke="#000000" stroke-width="1" />
            </g>
          </g>
        </g>
        <g id="dpad">
          <use stroke="none" fill="#80CAD9" xlink:href="#path_19" fill-rule="evenodd" />
          <g clip-path="url(#clip_19)">
            <use xlink:href="#path_19" fill="none" stroke="#000000" stroke-width="1" />
          </g>
        </g>
      </g>
      <g id="M8-TRACKER" transform="translate(0 154)">
        <g transform="translate(55.059998, 2.196)" id="M8-TRACKER" fill-opacity="0.6">
          <path d="M0.432 1.752L1.848 1.752L2.826 4.524L2.838 4.524L3.822 1.752L5.232 1.752L5.232 6L4.296 6L4.296 2.742L4.284 2.742L3.168 6L2.454 6L1.38 2.742L1.368 2.742L1.368 6L0.432 6L0.432 1.752ZM6.018 2.85Q6.018 2.556 6.129 2.337Q6.24 2.118 6.435 1.971Q6.63 1.824 6.888 1.752Q7.146 1.68 7.44 1.68Q7.734 1.68 7.992 1.752Q8.25 1.824 8.442 1.971Q8.634 2.118 8.748 2.337Q8.862 2.556 8.862 2.85Q8.862 3.198 8.673 3.444Q8.484 3.69 8.142 3.792L8.142 3.804Q8.526 3.906 8.73 4.173Q8.934 4.44 8.934 4.836Q8.934 5.142 8.811 5.376Q8.688 5.61 8.481 5.763Q8.274 5.916 8.004 5.994Q7.734 6.072 7.44 6.072Q7.146 6.072 6.876 5.994Q6.606 5.916 6.399 5.763Q6.192 5.61 6.069 5.376Q5.946 5.142 5.946 4.836Q5.946 4.44 6.15 4.173Q6.354 3.906 6.738 3.804L6.738 3.792Q6.396 3.69 6.207 3.444Q6.018 3.198 6.018 2.85ZM6.918 2.976Q6.918 3.174 7.062 3.312Q7.206 3.45 7.44 3.45Q7.674 3.45 7.818 3.312Q7.962 3.174 7.962 2.976Q7.962 2.784 7.818 2.646Q7.674 2.508 7.44 2.508Q7.206 2.508 7.062 2.646Q6.918 2.784 6.918 2.976ZM6.846 4.71Q6.846 4.932 7.008 5.088Q7.17 5.244 7.44 5.244Q7.71 5.244 7.872 5.088Q8.034 4.932 8.034 4.71Q8.034 4.482 7.872 4.326Q7.71 4.17 7.44 4.17Q7.17 4.17 7.008 4.326Q6.846 4.482 6.846 4.71ZM12.246 2.58L11.034 2.58L11.034 1.752L14.394 1.752L14.394 2.58L13.182 2.58L13.182 6L12.246 6L12.246 2.58ZM14.868 1.752L16.512 1.752Q16.836 1.752 17.127 1.815Q17.418 1.878 17.637 2.025Q17.856 2.172 17.985 2.421Q18.114 2.67 18.114 3.042Q18.114 3.492 17.88 3.807Q17.646 4.122 17.196 4.206L18.276 6L17.154 6L16.266 4.302L15.804 4.302L15.804 6L14.868 6L14.868 1.752ZM15.804 3.51L16.356 3.51Q16.482 3.51 16.623 3.501Q16.764 3.492 16.878 3.447Q16.992 3.402 17.067 3.306Q17.142 3.21 17.142 3.036Q17.142 2.874 17.076 2.778Q17.01 2.682 16.908 2.631Q16.806 2.58 16.674 2.562Q16.542 2.544 16.416 2.544L15.804 2.544L15.804 3.51ZM20.154 1.752L20.928 1.752L22.776 6L21.72 6L21.354 5.1L19.704 5.1L19.35 6L18.318 6L20.154 1.752ZM20.514 2.988L19.998 4.308L21.036 4.308L20.514 2.988ZM25.98 2.856Q25.842 2.688 25.641 2.598Q25.44 2.508 25.176 2.508Q24.912 2.508 24.687 2.61Q24.462 2.712 24.297 2.895Q24.132 3.078 24.039 3.33Q23.946 3.582 23.946 3.876Q23.946 4.176 24.039 4.425Q24.132 4.674 24.294 4.857Q24.456 5.04 24.675 5.142Q24.894 5.244 25.146 5.244Q25.434 5.244 25.656 5.124Q25.878 5.004 26.022 4.788L26.802 5.37Q26.532 5.748 26.118 5.928Q25.704 6.108 25.266 6.108Q24.768 6.108 24.348 5.952Q23.928 5.796 23.622 5.505Q23.316 5.214 23.145 4.8Q22.974 4.386 22.974 3.876Q22.974 3.366 23.145 2.952Q23.316 2.538 23.622 2.247Q23.928 1.956 24.348 1.8Q24.768 1.644 25.266 1.644Q25.446 1.644 25.641 1.677Q25.836 1.71 26.025 1.782Q26.214 1.854 26.388 1.974Q26.562 2.094 26.7 2.268L25.98 2.856ZM27.348 1.752L28.284 1.752L28.284 3.516L29.934 1.752L31.158 1.752L29.268 3.726L31.32 6L30.012 6L28.284 3.984L28.284 6L27.348 6L27.348 1.752ZM31.68 1.752L34.566 1.752L34.566 2.616L32.616 2.616L32.616 3.408L34.458 3.408L34.458 4.272L32.616 4.272L32.616 5.136L34.674 5.136L34.674 6L31.68 6L31.68 1.752ZM35.424 1.752L37.068 1.752Q37.392 1.752 37.683 1.815Q37.974 1.878 38.193 2.025Q38.412 2.172 38.541 2.421Q38.67 2.67 38.67 3.042Q38.67 3.492 38.436 3.807Q38.202 4.122 37.752 4.206L38.832 6L37.71 6L36.822 4.302L36.36 4.302L36.36 6L35.424 6L35.424 1.752ZM36.36 3.51L36.912 3.51Q37.038 3.51 37.179 3.501Q37.32 3.492 37.434 3.447Q37.548 3.402 37.623 3.306Q37.698 3.21 37.698 3.036Q37.698 2.874 37.632 2.778Q37.566 2.682 37.464 2.631Q37.362 2.58 37.23 2.562Q37.098 2.544 36.972 2.544L36.36 2.544L36.36 3.51Z" />
        </g>
      </g>
      <g id="RG351V" transform="translate(224 154)">
        <g transform="translate(84.282, 2.196)" id="RG351V" fill-opacity="0.6">
          <path d="M0.432 1.752L2.076 1.752Q2.4 1.752 2.691 1.815Q2.982 1.878 3.201 2.025Q3.42 2.172 3.549 2.421Q3.678 2.67 3.678 3.042Q3.678 3.492 3.444 3.807Q3.21 4.122 2.76 4.206L3.84 6L2.718 6L1.83 4.302L1.368 4.302L1.368 6L0.432 6L0.432 1.752ZM1.368 3.51L1.92 3.51Q2.046 3.51 2.187 3.501Q2.328 3.492 2.442 3.447Q2.556 3.402 2.631 3.306Q2.706 3.21 2.706 3.036Q2.706 2.874 2.64 2.778Q2.574 2.682 2.472 2.631Q2.37 2.58 2.238 2.562Q2.106 2.544 1.98 2.544L1.368 2.544L1.368 3.51ZM8.166 5.7Q7.752 5.916 7.302 6.012Q6.852 6.108 6.384 6.108Q5.886 6.108 5.466 5.952Q5.046 5.796 4.74 5.505Q4.434 5.214 4.263 4.8Q4.092 4.386 4.092 3.876Q4.092 3.366 4.263 2.952Q4.434 2.538 4.74 2.247Q5.046 1.956 5.466 1.8Q5.886 1.644 6.384 1.644Q6.894 1.644 7.323 1.767Q7.752 1.89 8.076 2.19L7.416 2.91Q7.224 2.712 6.984 2.61Q6.744 2.508 6.384 2.508Q6.084 2.508 5.841 2.61Q5.598 2.712 5.424 2.895Q5.25 3.078 5.157 3.33Q5.064 3.582 5.064 3.876Q5.064 4.176 5.157 4.425Q5.25 4.674 5.424 4.857Q5.598 5.04 5.841 5.142Q6.084 5.244 6.384 5.244Q6.69 5.244 6.912 5.175Q7.134 5.106 7.266 5.034L7.266 4.344L6.504 4.344L6.504 3.48L8.166 3.48L8.166 5.7ZM9.852 3.426L10.146 3.426Q10.272 3.426 10.392 3.408Q10.512 3.39 10.611 3.339Q10.71 3.288 10.77 3.195Q10.83 3.102 10.83 2.952Q10.83 2.76 10.677 2.634Q10.524 2.508 10.302 2.508Q10.092 2.508 9.954 2.622Q9.816 2.736 9.774 2.904L8.784 2.7Q8.856 2.424 9 2.229Q9.144 2.034 9.342 1.914Q9.54 1.794 9.783 1.737Q10.026 1.68 10.296 1.68Q10.578 1.68 10.839 1.749Q11.1 1.818 11.298 1.965Q11.496 2.112 11.613 2.334Q11.73 2.556 11.73 2.862Q11.73 3.216 11.544 3.468Q11.358 3.72 11.004 3.792L11.004 3.81Q11.196 3.834 11.343 3.924Q11.49 4.014 11.592 4.146Q11.694 4.278 11.748 4.446Q11.802 4.614 11.802 4.8Q11.802 5.118 11.679 5.358Q11.556 5.598 11.349 5.757Q11.142 5.916 10.863 5.994Q10.584 6.072 10.272 6.072Q9.702 6.072 9.291 5.808Q8.88 5.544 8.748 4.974L9.696 4.752Q9.744 4.98 9.891 5.112Q10.038 5.244 10.326 5.244Q10.62 5.244 10.761 5.091Q10.902 4.938 10.902 4.698Q10.902 4.518 10.827 4.419Q10.752 4.32 10.632 4.272Q10.512 4.224 10.362 4.215Q10.212 4.206 10.062 4.206L9.852 4.206L9.852 3.426ZM15.21 2.544L13.524 2.544L13.506 3.198Q13.644 3.15 13.884 3.15Q14.208 3.15 14.478 3.246Q14.748 3.342 14.943 3.525Q15.138 3.708 15.246 3.969Q15.354 4.23 15.354 4.554Q15.354 4.914 15.231 5.196Q15.108 5.478 14.892 5.673Q14.676 5.868 14.379 5.97Q14.082 6.072 13.734 6.072Q13.182 6.072 12.81 5.802Q12.438 5.532 12.3 4.986L13.242 4.77Q13.278 4.998 13.434 5.139Q13.59 5.28 13.824 5.28Q14.112 5.28 14.283 5.1Q14.454 4.92 14.454 4.644Q14.454 4.434 14.367 4.299Q14.28 4.164 14.139 4.083Q13.998 4.002 13.824 3.972Q13.65 3.942 13.476 3.942Q13.254 3.942 13.029 3.984Q12.804 4.026 12.594 4.098L12.642 1.752L15.21 1.752L15.21 2.544ZM17.388 2.76L16.536 3.51L16.026 2.922L17.412 1.752L18.252 1.752L18.252 6L17.388 6L17.388 2.76ZM19.224 1.752L20.292 1.752L21.342 4.536L21.354 4.536L22.422 1.752L23.424 1.752L21.672 6L20.922 6L19.224 1.752Z" />
        </g>
      </g>
    </g>
  </g>
</svg>