<svg width="512" height="512" viewBox="0 0 512 512" fill="none" xmlns="http://www.w3.org/2000/svg">
<path d="M194.833 456C225.474 456 288.664 456 288.664 456C288.664 456 275.733 373.743 323.608 301.015C371.483 228.287 385.659 166.277 363.824 120.727C341.99 75.177 303.411 51.9175 247.011 56.5894C190.608 61.2582 165.814 117.283 167.695 120.727C168.795 122.737 191.236 108.708 213.983 109.59C230.252 110.218 248.033 120.458 252.052 140.552C261.092 185.752 205.761 196.54 142.833 255.753C79.9045 314.965 94.6951 395.834 142.833 434.95C153.223 443.394 167.692 452.172 194.833 456Z" fill="white"/>
<path d="M302.443 455.828C302.443 455.828 295.746 418.684 306.18 375.443C316.615 332.206 336.908 300.803 339.39 300.803C341.871 300.803 344.568 316.112 344.568 316.112C344.568 316.112 410.574 330.756 410.574 362.043C410.574 373.528 382.812 380.006 382.812 380.006C382.812 380.006 377.068 392.665 379.037 411.806C381.008 430.944 386.499 442.428 386.499 442.428C386.499 442.428 401.818 450.084 392.246 455.825H302.443V455.828ZM377.952 353.559C382.115 353.559 385.487 350.187 385.487 346.025C385.487 341.862 382.115 338.49 377.952 338.49C373.79 338.49 370.418 341.862 370.418 346.025C370.418 350.187 373.79 353.559 377.952 353.559Z" fill="white"/>
</svg>
